<svg xmlns="http://www.w3.org/2000/svg" xmlns:xlink="http://www.w3.org/1999/xlink" contentStyleType="text/css" data-diagram-type="ACTIVITY" height="803px" preserveAspectRatio="none" style="width:341px;height:803px;background:#FFFFFF;" version="1.1" viewBox="0 0 341 803" width="341px" zoomAndPan="magnify"><defs/><g><rect fill="#F1F1F1" height="33.9688" rx="12.5" ry="12.5" style="stroke:#181818;stroke-width:0.5;" width="49.3145" x="163.0498" y="11"/><text fill="#000000" font-family="sans-serif" font-size="12" lengthAdjust="spacing" textLength="29.3145" x="173.0498" y="32.1387">Start</text><rect fill="#F1F1F1" height="75.875" rx="12.5" ry="12.5" style="stroke:#181818;stroke-width:0.5;" width="137.5391" x="118.9375" y="64.9688"/><text fill="#000000" font-family="sans-serif" font-size="12" lengthAdjust="spacing" textLength="117.5391" x="128.9375" y="86.1074">Verbindungsaufbau</text><text fill="#000000" font-family="sans-serif" font-size="12" lengthAdjust="spacing" textLength="109.0195" x="128.9375" y="100.0762">Client sendet eine</text><text fill="#000000" font-family="sans-serif" font-size="12" lengthAdjust="spacing" textLength="104.8887" x="128.9375" y="114.0449">&#8222;Hello&#8220;-Nachricht</text><text fill="#000000" font-family="sans-serif" font-size="12" lengthAdjust="spacing" textLength="84.5449" x="128.9375" y="128.0137">an den Server</text><rect fill="#F1F1F1" height="75.875" rx="12.5" ry="12.5" style="stroke:#181818;stroke-width:0.5;" width="142.0859" x="116.6641" y="160.8438"/><text fill="#000000" font-family="sans-serif" font-size="12" lengthAdjust="spacing" textLength="114.6152" x="126.6641" y="181.9824">Server sendet dem</text><text fill="#000000" font-family="sans-serif" font-size="12" lengthAdjust="spacing" textLength="122.0859" x="126.6641" y="195.9512">Client sein Zertifikat</text><text fill="#000000" font-family="sans-serif" font-size="12" lengthAdjust="spacing" textLength="83.1094" x="126.6641" y="209.9199">(Server-Hello-</text><text fill="#000000" font-family="sans-serif" font-size="12" lengthAdjust="spacing" textLength="62.3906" x="126.6641" y="223.8887">Nachricht)</text><polygon fill="#F1F1F1" points="141.2095,256.7188,234.2046,256.7188,246.2046,268.7188,234.2046,280.7188,141.2095,280.7188,129.2095,268.7188,141.2095,256.7188" style="stroke:#181818;stroke-width:0.5;"/><text fill="#000000" font-family="sans-serif" font-size="11" lengthAdjust="spacing" textLength="92.9951" x="141.2095" y="272.5269">Zertifikat valide?</text><text fill="#000000" font-family="sans-serif" font-size="11" lengthAdjust="spacing" textLength="9.7969" x="119.4126" y="266.1245">ja</text><text fill="#000000" font-family="sans-serif" font-size="11" lengthAdjust="spacing" textLength="23.7671" x="246.2046" y="266.1245">nein</text><rect fill="#F1F1F1" height="61.9063" rx="12.5" ry="12.5" style="stroke:#181818;stroke-width:0.5;" width="129.4648" x="38.0293" y="290.7188"/><text fill="#000000" font-family="sans-serif" font-size="12" lengthAdjust="spacing" textLength="92.5313" x="48.0293" y="311.8574">symmetrischen</text><text fill="#000000" font-family="sans-serif" font-size="12" lengthAdjust="spacing" textLength="105.6504" x="51.8438" y="325.8262">Sitzungsschl&#252;ssel</text><text fill="#000000" font-family="sans-serif" font-size="12" lengthAdjust="spacing" textLength="56.209" x="51.8438" y="339.7949">erzeugen</text><rect fill="#F1F1F1" height="75.875" rx="12.5" ry="12.5" style="stroke:#181818;stroke-width:0.5;" width="150.4648" x="27.5293" y="372.625"/><text fill="#000000" font-family="sans-serif" font-size="12" lengthAdjust="spacing" textLength="105.6504" x="37.5293" y="393.7637">Sitzungsschl&#252;ssel</text><text fill="#000000" font-family="sans-serif" font-size="12" lengthAdjust="spacing" textLength="125.3906" x="37.5293" y="407.7324">mit dem &#246;ffentlichen</text><text fill="#000000" font-family="sans-serif" font-size="12" lengthAdjust="spacing" textLength="130.4648" x="37.5293" y="421.7012">Schl&#252;ssel des Servers</text><text fill="#000000" font-family="sans-serif" font-size="12" lengthAdjust="spacing" textLength="81.6387" x="37.5293" y="435.6699">verschl&#252;sseln</text><rect fill="#F1F1F1" height="89.8438" rx="12.5" ry="12.5" style="stroke:#181818;stroke-width:0.5;" width="128.7559" x="38.3838" y="468.5"/><text fill="#000000" font-family="sans-serif" font-size="12" lengthAdjust="spacing" textLength="105.9199" x="48.3838" y="489.6387">Client sendet den</text><text fill="#000000" font-family="sans-serif" font-size="12" lengthAdjust="spacing" textLength="93.7266" x="48.3838" y="503.6074">verschl&#252;sselten</text><text fill="#000000" font-family="sans-serif" font-size="12" lengthAdjust="spacing" textLength="101.1738" x="48.3838" y="517.5762">Schl&#252;ssel an den</text><text fill="#000000" font-family="sans-serif" font-size="12" lengthAdjust="spacing" textLength="108.7559" x="48.3838" y="531.5449">Server (Client Key</text><text fill="#000000" font-family="sans-serif" font-size="12" lengthAdjust="spacing" textLength="63.5273" x="48.3838" y="545.5137">Exchange)</text><rect fill="#F1F1F1" height="75.875" rx="12.5" ry="12.5" style="stroke:#181818;stroke-width:0.5;" width="173.498" x="16.0127" y="578.3438"/><text fill="#000000" font-family="sans-serif" font-size="12" lengthAdjust="spacing" textLength="105.6504" x="26.0127" y="599.4824">Sitzungsschl&#252;ssel</text><text fill="#000000" font-family="sans-serif" font-size="12" lengthAdjust="spacing" textLength="79.7461" x="26.0127" y="613.4512">wird mit dem</text><text fill="#000000" font-family="sans-serif" font-size="12" lengthAdjust="spacing" textLength="109.8281" x="26.0127" y="627.4199">privaten Schl&#252;ssel</text><text fill="#000000" font-family="sans-serif" font-size="12" lengthAdjust="spacing" textLength="153.498" x="26.0127" y="641.3887">des Servers entschl&#252;sselt</text><rect fill="#F1F1F1" height="33.9688" rx="12.5" ry="12.5" style="stroke:#181818;stroke-width:0.5;" width="183.5234" x="11" y="674.2188"/><text fill="#000000" font-family="sans-serif" font-size="12" lengthAdjust="spacing" textLength="163.5234" x="21" y="695.3574">Best&#228;tigung des Schl&#252;ssels</text><rect fill="#F1F1F1" height="47.9375" rx="12.5" ry="12.5" style="stroke:#181818;stroke-width:0.5;" width="116.2578" x="214.5234" y="290.7188"/><text fill="#000000" font-family="sans-serif" font-size="12" lengthAdjust="spacing" textLength="73.7285" x="224.5234" y="311.8574">Abbruch mit</text><text fill="#000000" font-family="sans-serif" font-size="12" lengthAdjust="spacing" textLength="96.2578" x="224.5234" y="325.8262">Zertifikatsfehler</text><polygon fill="#F1F1F1" points="187.707,714.1875,199.707,726.1875,187.707,738.1875,175.707,726.1875,187.707,714.1875" style="stroke:#181818;stroke-width:0.5;"/><rect fill="#F1F1F1" height="33.9688" rx="12.5" ry="12.5" style="stroke:#181818;stroke-width:0.5;" width="50.1875" x="162.6133" y="758.1875"/><text fill="#000000" font-family="sans-serif" font-size="12" lengthAdjust="spacing" textLength="30.1875" x="172.6133" y="779.3262">Ende</text><line style="stroke:#181818;stroke-width:1;" x1="187.707" x2="187.707" y1="44.9688" y2="64.9688"/><polygon fill="#181818" points="183.707,54.9688,187.707,64.9688,191.707,54.9688,187.707,58.9688" style="stroke:#181818;stroke-width:1;"/><line style="stroke:#181818;stroke-width:1;" x1="187.707" x2="187.707" y1="140.8438" y2="160.8438"/><polygon fill="#181818" points="183.707,150.8438,187.707,160.8438,191.707,150.8438,187.707,154.8438" style="stroke:#181818;stroke-width:1;"/><line style="stroke:#181818;stroke-width:1;" x1="102.7617" x2="102.7617" y1="352.625" y2="372.625"/><polygon fill="#181818" points="98.7617,362.625,102.7617,372.625,106.7617,362.625,102.7617,366.625" style="stroke:#181818;stroke-width:1;"/><line style="stroke:#181818;stroke-width:1;" x1="102.7617" x2="102.7617" y1="448.5" y2="468.5"/><polygon fill="#181818" points="98.7617,458.5,102.7617,468.5,106.7617,458.5,102.7617,462.5" style="stroke:#181818;stroke-width:1;"/><line style="stroke:#181818;stroke-width:1;" x1="102.7617" x2="102.7617" y1="558.3438" y2="578.3438"/><polygon fill="#181818" points="98.7617,568.3438,102.7617,578.3438,106.7617,568.3438,102.7617,572.3438" style="stroke:#181818;stroke-width:1;"/><line style="stroke:#181818;stroke-width:1;" x1="102.7617" x2="102.7617" y1="654.2188" y2="674.2188"/><polygon fill="#181818" points="98.7617,664.2188,102.7617,674.2188,106.7617,664.2188,102.7617,668.2188" style="stroke:#181818;stroke-width:1;"/><line style="stroke:#181818;stroke-width:1;" x1="129.2095" x2="102.7617" y1="268.7188" y2="268.7188"/><line style="stroke:#181818;stroke-width:1;" x1="102.7617" x2="102.7617" y1="268.7188" y2="290.7188"/><polygon fill="#181818" points="98.7617,280.7188,102.7617,290.7188,106.7617,280.7188,102.7617,284.7188" style="stroke:#181818;stroke-width:1;"/><line style="stroke:#181818;stroke-width:1;" x1="246.2046" x2="272.6523" y1="268.7188" y2="268.7188"/><line style="stroke:#181818;stroke-width:1;" x1="272.6523" x2="272.6523" y1="268.7188" y2="290.7188"/><polygon fill="#181818" points="268.6523,280.7188,272.6523,290.7188,276.6523,280.7188,272.6523,284.7188" style="stroke:#181818;stroke-width:1;"/><line style="stroke:#181818;stroke-width:1;" x1="102.7617" x2="102.7617" y1="708.1875" y2="726.1875"/><line style="stroke:#181818;stroke-width:1;" x1="102.7617" x2="175.707" y1="726.1875" y2="726.1875"/><polygon fill="#181818" points="165.707,722.1875,175.707,726.1875,165.707,730.1875,169.707,726.1875" style="stroke:#181818;stroke-width:1;"/><line style="stroke:#181818;stroke-width:1;" x1="272.6523" x2="272.6523" y1="338.6563" y2="726.1875"/><line style="stroke:#181818;stroke-width:1;" x1="272.6523" x2="199.707" y1="726.1875" y2="726.1875"/><polygon fill="#181818" points="209.707,722.1875,199.707,726.1875,209.707,730.1875,205.707,726.1875" style="stroke:#181818;stroke-width:1;"/><line style="stroke:#181818;stroke-width:1;" x1="187.707" x2="187.707" y1="236.7188" y2="256.7188"/><polygon fill="#181818" points="183.707,246.7188,187.707,256.7188,191.707,246.7188,187.707,250.7188" style="stroke:#181818;stroke-width:1;"/><line style="stroke:#181818;stroke-width:1;" x1="187.707" x2="187.707" y1="738.1875" y2="758.1875"/><polygon fill="#181818" points="183.707,748.1875,187.707,758.1875,191.707,748.1875,187.707,752.1875" style="stroke:#181818;stroke-width:1;"/><!--SRC=[TP6nJiCm48PtFyMDoT0NI0O4g18I4aia1ZOdFYS7Za6sKsYdFWXYuXcOsFecVHBESPkc4btY-Ew_x_ux5rMGBfIYU4HNarM3RRqST2q74BU6q0RmQ1K6GB8ezjklEpJcTR_zN3p8fdFKT4582mejLEXMw9YLVew52liPYomyeGkawKK6aINfOeGkn8JCIq4QifCILjAGmgiSGiUjicUP2u32h_iUWoFVS9G3K57On1auO7Q_tgE9KNGR75gqPQpvLz9JChhxqPgD6Ze0gqd4QNyOqNCY7bCkWS_tfSRwCrbWv-VCjBaOIolB3enxN7Dm-T5qqhQON_0TOU_arD4zNzyShMJiKysdcra7niySZUGRz67t7QXbVD9E0byA_Y1abbzkNFbrNRkXwSQUV3yzaTVOcVZ-F3zfKInv3UKV]--></g></svg>